<?xml version="1.0" encoding="UTF-8"?>
<!DOCTYPE svg PUBLIC "-//W3C//DTD SVG 1.1//EN" "http://www.w3.org/Graphics/SVG/1.1/DTD/svg11.dtd">
<!-- Creator: CorelDRAW 2020 (64-Bit Evaluation Version) -->
<svg xmlns="http://www.w3.org/2000/svg" xml:space="preserve" width="0.197543in" height="0.19685in" version="1.1" style="shape-rendering:geometricPrecision; text-rendering:geometricPrecision; image-rendering:optimizeQuality; fill-rule:evenodd; clip-rule:evenodd"
viewBox="0 0 2.1 2.09"
 xmlns:xlink="http://www.w3.org/1999/xlink"
 xmlns:xodm="http://www.corel.com/coreldraw/odm/2003">
 <defs>
  <style type="text/css">
   <![CDATA[
    .fil0 {fill:url(#id0)}
   ]]>
  </style>
  <linearGradient id="id0" gradientUnits="userSpaceOnUse" x1="0.52" y1="2.09" x2="0.52" y2="0.05">
   <stop offset="0" style="stop-opacity:1; stop-color:#1BA94C"/>
   <stop offset="0.290196" style="stop-opacity:1; stop-color:#37AC49"/>
   <stop offset="1" style="stop-opacity:1; stop-color:#54B046"/>
  </linearGradient>
 </defs>
 <g id="Layer_x0020_1">
  <metadata id="CorelCorpID_0Corel-Layer"/>
  <path class="fil0" d="M0.73 0.01c0.16,0 0.29,0.13 0.29,0.29 0,0.16 -0.13,0.29 -0.29,0.29 -0.16,0 -0.29,-0.13 -0.29,-0.29 0,-0.16 0.13,-0.29 0.29,-0.29zm-0.67 0.06c0.32,0.37 0.64,0.72 0.96,1.09 0.01,0.01 0.02,0.02 0.02,0.04l0 0 0 0 0 0 0 0.04 0 0 0 0.61 0 0.18c0,0.03 -0.03,0.06 -0.06,0.06l-0.91 0c-0.03,0 -0.06,-0.03 -0.06,-0.06l0 -0.18 0 -0.61 0 -0 -0 -1.15c0,-0.02 0.01,-0.03 0.03,-0.03 0.01,0 0.02,0.01 0.03,0.01zm1.5 1.52l0 0.44c-0,0.03 -0.02,0.04 -0.04,0.04 -0.25,-0.02 -0.42,-0.23 -0.42,-0.49 0,-0.27 0.22,-0.49 0.49,-0.49 0.26,0 0.47,0.17 0.49,0.42 0,0.03 -0.02,0.04 -0.04,0.04 -0.13,0 -0.29,0 -0.43,0 -0.06,0 -0.05,0.04 -0.05,0.05zm0.29 0c0.13,0 0.24,0.11 0.24,0.24 0,0.13 -0.11,0.24 -0.24,0.24 -0.13,0 -0.24,-0.11 -0.24,-0.24 0,-0.13 0.11,-0.24 0.24,-0.24zm-0.71 -1.59l0.9 0c0.03,0 0.06,0.03 0.06,0.06l0 0.06 0 0.27 0 0 0 0.1 -0 0c0,0.01 0,0.01 0,0.02 0,0.28 -0.23,0.51 -0.51,0.51 -0.28,0 -0.51,-0.23 -0.51,-0.51 0,-0.01 0,-0.01 0,-0.02l-0 0 0 -0.1 -0 -0 0 -0.33c0,-0.03 0.03,-0.06 0.06,-0.06z"/>
 </g>
</svg>
